<svg xmlns="http://www.w3.org/2000/svg" width="1024" height="1024" viewBox="0 0 1024 1024">
  <!-- App icon for ghost: the `utilities-terminal-symbolic` glyph (the same icon
       the empty-state screen shows) on a macOS-style dark rounded square.
       Regenerate the .icns with `cargo xtask icon`. -->
  <defs>
    <linearGradient id="bg" x1="0" y1="0" x2="0" y2="1">
      <stop offset="0" stop-color="#3a3a4e"/>
      <stop offset="1" stop-color="#1d1d28"/>
    </linearGradient>
  </defs>
  <!-- Apple icon grid: 824×824 body centred in 1024 with ~22.37% corner radius. -->
  <rect x="100" y="100" width="824" height="824" rx="185.4" ry="185.4" fill="url(#bg)"/>
  <!-- The 16-unit glyph scaled to 440px and centred (translate 292, scale 27.5). -->
  <g transform="translate(292,292) scale(27.5)">
    <g fill="#f2f2f2">
      <path d="M2.2 0C.993 0 0 1.007 0 2.209v10.582C0 13.993.994 15 2.2 15h11.6c1.206 0 2.2-1.007 2.2-2.209V2.209C16 1.007 15.006 0 13.8 0zm0 2h11.6c.124 0 .2.071.2.209v10.582c0 .138-.076.209-.2.209H2.2c-.124 0-.2-.071-.2-.209V2.209C2 2.071 2.076 2 2.2 2z"/>
      <path d="M4.494 5.895a.6.6 0 00-.418 1.029L5.652 8.5l-1.576 1.576a.6.6 0 10.848.848l2-2a.6.6 0 000-.848l-2-2a.6.6 0 00-.43-.181z"/>
    </g>
    <!-- Cursor in a terminal-green accent. -->
    <path d="M8 10h3v1H8z" fill="#62e884"/>
  </g>
</svg>
